<?xml version="1.0" encoding="UTF-8"?>
<svg width="129px" height="32px" viewBox="0 0 129 32" version="1.1" xmlns="http://www.w3.org/2000/svg" xmlns:xlink="http://www.w3.org/1999/xlink">
    <!-- Generator: Sketch 51.3 (57544) - http://www.bohemiancoding.com/sketch -->
    <title>Group</title>
    <desc>Created with Sketch.</desc>
    <defs></defs>
    <g id="Page-1" stroke="none" stroke-width="1" fill="none" fill-rule="evenodd">
        <g id="Artboard" fill="#000000">
            <g id="Group">
                <rect id="Rectangle" fill-opacity="0" x="0" y="0" width="128" height="32"></rect>
                <path d="M0.044,25 L0.044,5.176 L4.86,5.176 L4.86,20.828 L12.532,20.828 L12.532,25 L0.044,25 Z M22.752,18.924 L22.164,18.924 C21.6599975,18.924 21.1513359,18.9473331 20.638,18.994 C20.1246641,19.0406669 19.6673353,19.1293327 19.266,19.26 C18.8646647,19.3906673 18.5333346,19.5819987 18.272,19.834 C18.0106654,20.0860013 17.88,20.4173313 17.88,20.828 C17.88,21.0893346 17.9406661,21.3133324 18.062,21.5 C18.1833339,21.6866676 18.3373324,21.8359994 18.524,21.948 C18.7106676,22.0600006 18.9253321,22.1393331 19.168,22.186 C19.4106679,22.2326669 19.6439989,22.256 19.868,22.256 C20.801338,22.256 21.5153309,21.9993359 22.01,21.486 C22.5046691,20.9726641 22.752,20.2773377 22.752,19.4 L22.752,18.924 Z M14.324,12.96 C15.1453374,12.1759961 16.1019945,11.588002 17.194,11.196 C18.2860055,10.803998 19.4013276,10.608 20.54,10.608 C21.7160059,10.608 22.7099959,10.7526652 23.522,11.042 C24.3340041,11.3313348 24.9919975,11.7793303 25.496,12.386 C26.0000025,12.9926697 26.3686655,13.7579954 26.602,14.682 C26.8353345,15.6060046 26.952,16.7026603 26.952,17.972 L26.952,25 L22.752,25 L22.752,23.516 L22.668,23.516 C22.3133316,24.0946696 21.7766703,24.5426651 21.058,24.86 C20.3393297,25.1773349 19.5600042,25.336 18.72,25.336 C18.1599972,25.336 17.5813363,25.2613341 16.984,25.112 C16.3866637,24.9626659 15.8406691,24.7200017 15.346,24.384 C14.8513309,24.0479983 14.4453349,23.6000028 14.128,23.04 C13.8106651,22.4799972 13.652,21.7893374 13.652,20.968 C13.652,19.959995 13.9273306,19.1480031 14.478,18.532 C15.0286694,17.9159969 15.7379957,17.4400017 16.606,17.104 C17.4740043,16.7679983 18.4399947,16.5440006 19.504,16.432 C20.5680053,16.3199994 21.603995,16.264 22.612,16.264 L22.612,16.04 C22.612,15.3493299 22.3693358,14.8406683 21.884,14.514 C21.3986642,14.1873317 20.8013369,14.024 20.092,14.024 C19.4386634,14.024 18.8086697,14.1639986 18.202,14.444 C17.5953303,14.7240014 17.0773355,15.059998 16.648,15.452 L14.324,12.96 Z M38.572,15.172 C38.1986648,14.8173316 37.7600025,14.5186679 37.256,14.276 C36.7519975,14.0333321 36.2200028,13.912 35.66,13.912 C35.2306645,13.912 34.8340018,13.9959992 34.47,14.164 C34.1059982,14.3320008 33.924,14.6213313 33.924,15.032 C33.924,15.424002 34.1246647,15.7039992 34.526,15.872 C34.9273353,16.0400008 35.5759955,16.2266656 36.472,16.432 C36.9946693,16.5440006 37.5219973,16.7026656 38.054,16.908 C38.5860027,17.1133344 39.0666645,17.3839983 39.496,17.72 C39.9253355,18.0560017 40.2706654,18.4666642 40.532,18.952 C40.7933346,19.4373358 40.924,20.0159966 40.924,20.688 C40.924,21.5653377 40.7466684,22.3073303 40.392,22.914 C40.0373316,23.5206697 39.5753362,24.0106648 39.006,24.384 C38.4366638,24.7573352 37.7973369,25.0279992 37.088,25.196 C36.3786631,25.3640008 35.6693369,25.448 34.96,25.448 C33.8213276,25.448 32.7060055,25.2660018 31.614,24.902 C30.5219945,24.5379982 29.6120036,24.0013369 28.884,23.292 L31.46,20.576 C31.8706687,21.0240022 32.3746637,21.3973318 32.972,21.696 C33.5693363,21.9946682 34.2039966,22.144 34.876,22.144 C35.2493352,22.144 35.6179982,22.0553342 35.982,21.878 C36.3460018,21.7006658 36.528,21.3880022 36.528,20.94 C36.528,20.5106645 36.3040022,20.1933344 35.856,19.988 C35.4079978,19.7826656 34.7080048,19.5680011 33.756,19.344 C33.2706642,19.2319994 32.7853358,19.0826676 32.3,18.896 C31.8146642,18.7093324 31.3806686,18.4573349 30.998,18.14 C30.6153314,17.8226651 30.3026679,17.430669 30.06,16.964 C29.8173321,16.497331 29.696,15.9373366 29.696,15.284 C29.696,14.4439958 29.8733316,13.7300029 30.228,13.142 C30.5826684,12.5539971 31.0399972,12.0733352 31.6,11.7 C32.1600028,11.3266648 32.7806633,11.0513342 33.462,10.874 C34.1433367,10.6966658 34.8199966,10.608 35.492,10.608 C36.5373386,10.608 37.5593283,10.7713317 38.558,11.098 C39.5566717,11.4246683 40.4013299,11.9146634 41.092,12.568 L38.572,15.172 Z M59.208,25 L54.252,25 L48.764,11.056 L53.832,11.056 L56.772,20.1 L56.856,20.1 L59.796,11.056 L64.696,11.056 L59.208,25 Z M76.064,16.432 C76.064,15.7039964 75.8353356,15.0786693 75.378,14.556 C74.9206644,14.0333307 74.2346712,13.772 73.32,13.772 C72.8719978,13.772 72.4613352,13.8419993 72.088,13.982 C71.7146648,14.1220007 71.3880014,14.3133321 71.108,14.556 C70.8279986,14.7986679 70.6040008,15.0833317 70.436,15.41 C70.2679992,15.7366683 70.1746668,16.0773316 70.156,16.432 L76.064,16.432 Z M80.292,18.196 L80.292,18.756 C80.292,18.9426676 80.2826668,19.1199992 80.264,19.288 L70.156,19.288 C70.1933335,19.680002 70.309999,20.0346651 70.506,20.352 C70.702001,20.6693349 70.9539985,20.9446655 71.262,21.178 C71.5700015,21.4113345 71.9153314,21.5933327 72.298,21.724 C72.6806686,21.8546673 73.0773313,21.92 73.488,21.92 C74.2160036,21.92 74.8319975,21.784668 75.336,21.514 C75.8400025,21.243332 76.2506651,20.8933355 76.568,20.464 L79.76,22.48 C79.1066634,23.4320048 78.2433387,24.1646641 77.17,24.678 C76.0966613,25.1913359 74.8506738,25.448 73.432,25.448 C72.3866614,25.448 71.397338,25.2846683 70.464,24.958 C69.530662,24.6313317 68.7140035,24.1553365 68.014,23.53 C67.3139965,22.9046635 66.7633353,22.1346712 66.362,21.22 C65.9606647,20.3053288 65.76,19.2600059 65.76,18.084 C65.76,16.9453276 65.955998,15.9140046 66.348,14.99 C66.740002,14.0659954 67.2719966,13.2820032 67.944,12.638 C68.6160034,11.9939968 69.4093288,11.4946684 70.324,11.14 C71.2386712,10.7853316 72.2279947,10.608 73.292,10.608 C74.3186718,10.608 75.261329,10.7806649 76.12,11.126 C76.978671,11.4713351 77.7159969,11.9706634 78.332,12.624 C78.9480031,13.2773366 79.4286649,14.070662 79.774,15.004 C80.1193351,15.937338 80.292,17.0013274 80.292,18.196 Z M97.932,23.684 C97.932,25.0466735 97.736002,26.231995 97.344,27.24 C96.951998,28.248005 96.4013369,29.08333 95.692,29.746 C94.9826631,30.40867 94.1193384,30.9033317 93.102,31.23 C92.0846616,31.5566683 90.9600062,31.72 89.728,31.72 C88.4959938,31.72 87.2313398,31.5333352 85.934,31.16 C84.6366602,30.7866648 83.5120048,30.2453369 82.56,29.536 L84.856,26.26 C85.5280034,26.8573363 86.2699959,27.3006652 87.082,27.59 C87.8940041,27.8793348 88.6919961,28.024 89.476,28.024 C90.8200067,28.024 91.8139968,27.6693369 92.458,26.96 C93.1020032,26.2506631 93.424,25.3080059 93.424,24.132 L93.424,23.292 L93.34,23.292 C92.9106645,23.8520028 92.3320036,24.2999983 91.604,24.636 C90.8759964,24.9720017 90.045338,25.14 89.112,25.14 C88.0479947,25.14 87.1053374,24.9486686 86.284,24.566 C85.4626626,24.1833314 84.7673362,23.6653366 84.198,23.012 C83.6286638,22.3586634 83.1946682,21.5980043 82.896,20.73 C82.5973318,19.8619957 82.448,18.9426715 82.448,17.972 C82.448,17.0013285 82.5973318,16.0773377 82.896,15.2 C83.1946682,14.3226623 83.6286638,13.5480034 84.198,12.876 C84.7673362,12.2039966 85.4626626,11.6673353 86.284,11.266 C87.1053374,10.8646647 88.0386614,10.664 89.084,10.664 C89.9613377,10.664 90.8013293,10.8413316 91.604,11.196 C92.4066707,11.5506684 93.0506642,12.1013296 93.536,12.848 L93.592,12.848 L93.592,11.056 L97.932,11.056 L97.932,23.684 Z M93.564,17.944 C93.564,17.477331 93.4846675,17.0293355 93.326,16.6 C93.1673325,16.1706645 92.9386682,15.7926683 92.64,15.466 C92.3413318,15.1393317 91.9866687,14.8826676 91.576,14.696 C91.1653313,14.5093324 90.6986693,14.416 90.176,14.416 C89.6533307,14.416 89.1913353,14.5093324 88.79,14.696 C88.3886647,14.8826676 88.0480014,15.1346651 87.768,15.452 C87.4879986,15.7693349 87.2733341,16.1426645 87.124,16.572 C86.9746659,17.0013355 86.9,17.4586642 86.9,17.944 C86.9,18.410669 86.9746659,18.8586645 87.124,19.288 C87.2733341,19.7173355 87.4879986,20.0953317 87.768,20.422 C88.0480014,20.7486683 88.3886647,21.009999 88.79,21.206 C89.1913353,21.402001 89.6533307,21.5 90.176,21.5 C90.6986693,21.5 91.1699979,21.402001 91.59,21.206 C92.0100021,21.009999 92.3646652,20.7533349 92.654,20.436 C92.9433348,20.1186651 93.1673325,19.7453355 93.326,19.316 C93.4846675,18.8866645 93.564,18.4293358 93.564,17.944 Z M109.804,18.924 L109.216,18.924 C108.711997,18.924 108.203336,18.9473331 107.69,18.994 C107.176664,19.0406669 106.719335,19.1293327 106.318,19.26 C105.916665,19.3906673 105.585335,19.5819987 105.324,19.834 C105.062665,20.0860013 104.932,20.4173313 104.932,20.828 C104.932,21.0893346 104.992666,21.3133324 105.114,21.5 C105.235334,21.6866676 105.389332,21.8359994 105.576,21.948 C105.762668,22.0600006 105.977332,22.1393331 106.22,22.186 C106.462668,22.2326669 106.695999,22.256 106.92,22.256 C107.853338,22.256 108.567331,21.9993359 109.062,21.486 C109.556669,20.9726641 109.804,20.2773377 109.804,19.4 L109.804,18.924 Z M101.376,12.96 C102.197337,12.1759961 103.153995,11.588002 104.246,11.196 C105.338005,10.803998 106.453328,10.608 107.592,10.608 C108.768006,10.608 109.761996,10.7526652 110.574,11.042 C111.386004,11.3313348 112.043997,11.7793303 112.548,12.386 C113.052003,12.9926697 113.420665,13.7579954 113.654,14.682 C113.887334,15.6060046 114.004,16.7026603 114.004,17.972 L114.004,25 L109.804,25 L109.804,23.516 L109.72,23.516 C109.365332,24.0946696 108.82867,24.5426651 108.11,24.86 C107.39133,25.1773349 106.612004,25.336 105.772,25.336 C105.211997,25.336 104.633336,25.2613341 104.036,25.112 C103.438664,24.9626659 102.892669,24.7200017 102.398,24.384 C101.903331,24.0479983 101.497335,23.6000028 101.18,23.04 C100.862665,22.4799972 100.704,21.7893374 100.704,20.968 C100.704,19.959995 100.979331,19.1480031 101.53,18.532 C102.080669,17.9159969 102.789996,17.4400017 103.658,17.104 C104.526004,16.7679983 105.491995,16.5440006 106.556,16.432 C107.620005,16.3199994 108.655995,16.264 109.664,16.264 L109.664,16.04 C109.664,15.3493299 109.421336,14.8406683 108.936,14.514 C108.450664,14.1873317 107.853337,14.024 107.144,14.024 C106.490663,14.024 105.86067,14.1639986 105.254,14.444 C104.64733,14.7240014 104.129335,15.059998 103.7,15.452 L101.376,12.96 Z M125.624,15.172 C125.250665,14.8173316 124.812003,14.5186679 124.308,14.276 C123.803997,14.0333321 123.272003,13.912 122.712,13.912 C122.282665,13.912 121.886002,13.9959992 121.522,14.164 C121.157998,14.3320008 120.976,14.6213313 120.976,15.032 C120.976,15.424002 121.176665,15.7039992 121.578,15.872 C121.979335,16.0400008 122.627996,16.2266656 123.524,16.432 C124.046669,16.5440006 124.573997,16.7026656 125.106,16.908 C125.638003,17.1133344 126.118665,17.3839983 126.548,17.72 C126.977335,18.0560017 127.322665,18.4666642 127.584,18.952 C127.845335,19.4373358 127.976,20.0159966 127.976,20.688 C127.976,21.5653377 127.798668,22.3073303 127.444,22.914 C127.089332,23.5206697 126.627336,24.0106648 126.058,24.384 C125.488664,24.7573352 124.849337,25.0279992 124.14,25.196 C123.430663,25.3640008 122.721337,25.448 122.012,25.448 C120.873328,25.448 119.758005,25.2660018 118.666,24.902 C117.573995,24.5379982 116.664004,24.0013369 115.936,23.292 L118.512,20.576 C118.922669,21.0240022 119.426664,21.3973318 120.024,21.696 C120.621336,21.9946682 121.255997,22.144 121.928,22.144 C122.301335,22.144 122.669998,22.0553342 123.034,21.878 C123.398002,21.7006658 123.58,21.3880022 123.58,20.94 C123.58,20.5106645 123.356002,20.1933344 122.908,19.988 C122.459998,19.7826656 121.760005,19.5680011 120.808,19.344 C120.322664,19.2319994 119.837336,19.0826676 119.352,18.896 C118.866664,18.7093324 118.432669,18.4573349 118.05,18.14 C117.667331,17.8226651 117.354668,17.430669 117.112,16.964 C116.869332,16.497331 116.748,15.9373366 116.748,15.284 C116.748,14.4439958 116.925332,13.7300029 117.28,13.142 C117.634668,12.5539971 118.091997,12.0733352 118.652,11.7 C119.212003,11.3266648 119.832663,11.0513342 120.514,10.874 C121.195337,10.6966658 121.871997,10.608 122.544,10.608 C123.589339,10.608 124.611328,10.7713317 125.61,11.098 C126.608672,11.4246683 127.45333,11.9146634 128.144,12.568 L125.624,15.172 Z" id="Las-vegas"></path>
            </g>
        </g>
    </g>
</svg>